<?xml version="1.0" ?><svg id="svg8" style="enable-background:new 0 0 48 48;" version="1.1" viewBox="0 0 48 48" xml:space="preserve" xmlns="http://www.w3.org/2000/svg" xmlns:cc="http://creativecommons.org/ns#" xmlns:dc="http://purl.org/dc/elements/1.1/" xmlns:inkscape="http://www.inkscape.org/namespaces/inkscape" xmlns:rdf="http://www.w3.org/1999/02/22-rdf-syntax-ns#" xmlns:sodipodi="http://sodipodi.sourceforge.net/DTD/sodipodi-0.dtd" xmlns:svg="http://www.w3.org/2000/svg" xmlns:xlink="http://www.w3.org/1999/xlink"><style type="text/css">
	.st0{fill:none;stroke:#000000;stroke-width:2;stroke-linecap:round;stroke-linejoin:round;}
	.st1{fill:none;stroke:#000000;stroke-linecap:round;stroke-linejoin:round;}
</style><defs/><g id="g2016"><g id="g2172" transform="translate(0.26458337,0.79375)"><polyline class="st0" points="43.7,24.2 43.7,21.2 43.7,16.2 43.7,15.2 41.7,14.2 29.7,15.8   "/><polyline class="st0" points="5.7,24.2 5.7,22.2 5.7,9.2 7,8.6 7.7,8.2 21.7,15.6   "/><path class="st1" d="M43.7,16.2l-8,1" id="path2076"/><polyline class="st1" points="21.7,18.7 9.7,12.2 7,8.6 6.7,8.2   "/><path class="st1" d="M9.7,12.2v12" id="path2080"/><path class="st1" d="M5.7,22.2h4l3-2v-2" id="path2090"/><line class="st1" x1="21.7" x2="14.7" y1="20.2" y2="20.2"/><path class="st1" d="M15.7,24.2l9-2" id="path2094"/><path class="st1" d="M43.7,21.2l-3,1v2" id="path2096"/><line class="st1" x1="40.7" x2="29.7" y1="22.2" y2="22.2"/><polyline class="st0" points="43.7,24.2 43.7,27.2 43.7,32.2 43.7,33.2 41.7,34.2 29.7,32.6   "/><polyline class="st0" points="25.7,31.7 24.7,31.2 7.7,40.2 7,39.8 5.7,39.2 5.7,26.2 5.7,24.2   "/><path class="st1" d="M43.7,32.2l-8-1" id="path2137"/><path class="st1" d="M6.7,40.2l3-4l13-7h2" id="path2139"/><path class="st1" d="M9.7,36.2v-12" id="path2141"/><path class="st1" d="M5.7,26.2h4l3,2v2" id="path2143"/><path class="st1" d="M14.7,28.2h7l1,1" id="path2145"/><path class="st1" d="M15.7,24.2l9,2" id="path2147"/><path class="st1" d="M43.7,27.2l-3-1v-2" id="path2149"/><line class="st1" x1="40.7" x2="29.7" y1="26.2" y2="26.2"/></g><path class="st0" d="M21,35l1,2l-1,6l3,1h2l3-1l-1-6l2-3v-0.6V27v-4v-6.4V16c0-0.5-0.5-1-1-1h-2c-0.5,0-1,0.5-1,1v1.5V22v1v4v5.5   V34"/><path class="st0" d="M26,15v7c0,0.6-0.5,1-1,1h-2c-0.5,0-1-0.4-1-1v-7c0-0.5,0.5-1,1-1h2C25.5,14,26,14.4,26,15z"/></g></svg>